#!OML:ASF H:\ManfredETheater\Project 1\Capture day 1\Session 1\subject.ASF
:FULLY-SPECIFIED
:DEGREES
155
root -2.70865 14.4083 34.4642 0.477688 72.3912 -4.96834
lowerback 35.8923 -0.0319343 3.11409
upperback 9.10503 2.71368 6.39889
thorax -8.1949 1.55322 4.04859
lowerneck 2.53198 -17.554 -18.7572
upperneck -6.46297 -23.8039 20.9485
head 2.53016 -12.0849 7.899
rclavicle -2.54444e-014 -3.33958e-014
rhumerus -26.7778 -17.1335 -62.1631
rradius 39.2506
rwrist -5.21974
rhand -23.5334 -12.0203
rfingers 7.12502
rthumb 2.92802 -41.98
lclavicle -2.54444e-014 -3.33958e-014
lhumerus -48.881 25.4097 72.8337
lradius 56.8365
lwrist -5.38291
lhand -30.6246 0.35898
lfingers 7.12502
lthumb -3.92066 30.3027
rfemur -44.8286 -21.164 5.89774
rtibia 69.2499
rfoot -15.0876 -9.50035
rtoes -11.6162
lfemur -54.43 -1.15082 -4.63221
ltibia 74.1291
lfoot -25.2964 -16.355
ltoes -5.24124
156
root -2.6737 14.5244 34.5245 2.12132 71.7761 -3.54202
lowerback 35.419 -0.00374314 2.94508
upperback 8.92031 2.61508 6.2539
thorax -8.22137 1.49701 4.02512
lowerneck 2.39143 -17.5063 -18.7328
upperneck -6.58856 -23.7018 20.9234
head 2.49038 -12.0271 7.89811
rclavicle -2.8625e-014 4.29375e-014
rhumerus -27.5691 -16.796 -62.754
rradius 39.1531
rwrist -4.9285
rhand -23.5199 -11.8894
rfingers 7.12502
rthumb 2.94106 -41.8489
lclavicle -2.8625e-014 4.29375e-014
lhumerus -48.8299 25.0121 72.7158
lradius 56.9681
lwrist -5.07168
lhand -30.4178 1.02862
lfingers 7.12502
lthumb -3.72095 30.9759
rfemur -44.5634 -21.0194 5.92989
rtibia 68.1155
rfoot -14.9083 -9.2064
rtoes -10.7744
lfemur -53.3802 -1.12906 -4.8512
ltibia 72.6845
lfoot -25.1883 -15.6205
ltoes -6.22933
157
root -2.63719 14.638 34.5844 3.62324 71.1458 -2.23713
lowerback 34.9433 0.0148214 2.78243
upperback 8.7388 2.50896 6.10536
thorax -8.23978 1.4378 3.99748
lowerneck 2.23284 -17.46 -18.6723
upperneck -6.70202 -23.5983 20.8697
head 2.44837 -11.9676 7.88299
rclavicle 2.54444e-014 -1.59028e-014
rhumerus -28.3473 -16.4767 -63.3176
rradius 39.0817
rwrist -4.69
rhand -23.5281 -11.7813
rfingers 7.12502
rthumb 2.93307 -41.7409
lclavicle 2.54444e-014 -1.59028e-014
lhumerus -48.7852 24.6172 72.5611
lradius 57.1178
lwrist -4.72853
lhand -30.0866 1.68634
lfingers 7.12502
lthumb -3.40113 31.639
rfemur -44.2674 -20.8953 5.94913
rtibia 66.9859
rfoot -14.7428 -8.86245
rtoes -9.92272
lfemur -52.3149 -1.14009 -5.0706
ltibia 71.249
lfoot -25.0836 -14.8299
ltoes -7.2609
158
root -2.60035 14.7484 34.6445 4.97641 70.5048 -1.07692
lowerback 34.4587 0.024231 2.62794
upperback 8.55538 2.39633 5.95714
thorax -8.25372 1.37579 3.9684
lowerneck 2.05441 -17.4022 -18.6216
upperneck -6.78633 -23.4797 20.8154
head 2.41643 -11.8989 7.86795
rclavicle -2.8625e-014 3.18055e-014
rhumerus -29.1053 -16.1781 -63.862
rradius 39.0268
rwrist -4.51191
rhand -23.5506 -11.7149
rfingers 7.12502
rthumb 2.91141 -41.6748
lclavicle -2.8625e-014 3.18055e-014
lhumerus -48.7488 24.223 72.3766
lradius 57.2813
lwrist -4.43459
lhand -29.6251 2.32414
lfingers 7.12502
lthumb -2.95537 32.2834
rfemur -43.9689 -20.7877 5.97979
rtibia 65.874
rfoot -14.5959 -8.47749
rtoes -9.04604
lfemur -51.2558 -1.17349 -5.26943
ltibia 69.8265
lfoot -24.9752 -13.9999
ltoes -8.32046
159
root -2.56335 14.8553 34.7052 6.195 69.8598 -0.0383825
lowerback 33.9746 0.0230333 2.47797
upperback 8.37135 2.27473 5.80842
thorax -8.26511 1.3099 3.93964
lowerneck 1.85136 -17.3472 -18.5244
upperneck -6.85297 -23.361 20.7253
head 2.38307 -11.829 7.83435
rclavicle -1.11319e-014 -1.11319e-014
rhumerus -29.8358 -15.9116 -64.3886
rradius 38.9785
rwrist -4.38406
rhand -23.574 -11.6902
rfingers 7.12502
rthumb 2.88873 -41.6504
lclavicle -1.11319e-014 -1.11319e-014
lhumerus -48.7202 23.8323 72.165
lradius 57.4552
lwrist -4.21753
lhand -29.073 2.94799
lfingers 7.12502
lthumb -2.42224 32.914
rfemur -43.6585 -20.6972 6.01824
rtibia 64.7844
rfoot -14.4738 -8.06234
rtoes -8.15015
lfemur -50.1943 -1.22496 -5.45224
ltibia 68.4165
lfoot -24.8567 -13.1516
ltoes -9.36434
160
root -2.52614 14.9587 34.767 7.278 69.2084 0.869658
lowerback 33.4728 0.00998923 2.33515
upperback 8.19033 2.14215 5.66044
thorax -8.26298 1.23921 3.91187
lowerneck 1.63288 -17.2757 -18.4522
upperneck -6.89274 -23.2216 20.651
head 2.36168 -11.7474 7.80855
rclavicle 4.77083e-014 -3.65764e-014
rhumerus -30.5291 -15.6723 -64.9024
rradius 38.9313
rwrist -4.30006
rhand -23.5782 -11.6995
rfingers 7.12502
rthumb 2.88475 -41.6598
lclavicle 4.77083e-014 -3.65764e-014
lhumerus -48.702 23.4423 71.9257
lradius 57.6375
lwrist -4.07158
lhand -28.4427 3.51742
lfingers 7.12502
lthumb -1.81346 33.4895
rfemur -43.3472 -20.6168 6.0774
rtibia 63.7283
rfoot -14.3908 -7.62761
rtoes -7.23514
lfemur -49.1381 -1.25031 -5.61863
ltibia 67.0265
lfoot -24.7317 -12.324
ltoes -10.3603
161
root -2.48897 15.0584 34.8298 8.21667 68.5447 1.64122
lowerback 32.9623 -0.0122147 2.20362
upperback 8.01151 2.00393 5.51417
thorax -8.2517 1.16605 3.88167
lowerneck 1.40328 -17.1999 -18.3608
upperneck -6.92138 -23.0754 20.5603
head 2.33974 -11.6618 7.77547
rclavicle 9.54166e-015 1.27222e-014
rhumerus -31.1851 -15.4774 -65.3965
rradius 38.8764
rwrist -4.22869
rhand -23.5508 -11.7171
rfingers 7.12502
rthumb 2.91121 -41.677
lclavicle 9.54166e-015 1.27222e-014
lhumerus -48.6921 23.0714 71.6514
lradius 57.8117
lwrist -4.003
lhand -27.7525 4.00754
lfingers 7.12502
lthumb -1.1469 33.9842
rfemur -43.0391 -20.5434 6.16967
rtibia 62.7089
rfoot -14.3452 -7.19578
rtoes -6.40007
lfemur -48.0792 -1.25736 -5.75668
ltibia 65.6559
lfoot -24.5949 -11.513
ltoes -11.2854
162
root -2.4516 15.1524 34.8936 9.02068 67.8674 2.28091
lowerback 32.4432 -0.0426031 2.09256
upperback 7.82938 1.86392 5.36891
thorax -8.23715 1.09195 3.84184
lowerneck 1.1721 -17.1113 -18.2923
upperneck -6.92926 -22.9145 20.4862
head 2.32677 -11.5685 7.75081
rclavicle -3.18055e-015 4.77083e-014
rhumerus -31.8201 -15.3553 -65.8554
rradius 38.8223
rwrist -4.14038
rhand -23.4583 -11.728
rfingers 7.12502
rthumb 3.00054 -41.6866
lclavicle -3.18055e-015 4.77083e-014
lhumerus -48.7002 22.7034 71.3591
lradius 57.9879
lwrist -3.97465
lhand -27.0403 4.41558
lfingers 7.12502
lthumb -0.458988 34.3948
rfemur -42.7478 -20.471 6.29254
rtibia 61.7377
rfoot -14.3404 -6.78263
rtoes -5.60109
lfemur -47.0328 -1.24544 -5.86374
ltibia 64.3175
lfoot -24.4451 -10.7127
ltoes -12.1451
163
root -2.41435 15.2441 34.9579 9.70478 67.1739 2.80984
lowerback 31.9205 -0.0741633 1.99729
upperback 7.64547 1.72982 5.22741
thorax -8.22039 1.02056 3.79487
lowerneck 0.942386 -17.0173 -18.2357
upperneck -6.92376 -22.7486 20.4178
head 2.31895 -11.4724 7.72946
rclavicle -1.66979e-014 -1.74931e-014
rhumerus -32.4348 -15.322 -66.2614
rradius 38.7622
rwrist -4.01237
rhand -23.3123 -11.7131
rfingers 7.12502
rthumb 3.14147 -41.6697
lclavicle -1.66979e-014 -1.74931e-014
lhumerus -48.7071 22.3146 71.0599
lradius 58.1501
lwrist -3.93448
lhand -26.3526 4.74623
lfingers 7.12502
lthumb 0.205175 34.7259
rfemur -42.4584 -20.4007 6.44634
rtibia 60.8067
rfoot -14.3686 -6.43174
rtoes -4.85352
lfemur -45.9786 -1.23247 -5.94592
ltibia 63.0006
lfoot -24.2805 -9.90996
ltoes -12.9209
164
root -2.37716 15.3311 35.0233 10.3074 66.452 3.25759
lowerback 31.1485 -0.0812393 1.85315
upperback 7.81751 1.60491 4.96939
thorax -8.32798 0.986381 3.92525
lowerneck 0.72669 -16.9258 -18.1767
upperneck -6.92226 -22.5877 20.346
head 2.3081 -11.3796 7.70757
rclavicle -4.53229e-014 2.54444e-014
rhumerus -33.0418 -15.3669 -66.6011
rradius 38.7092
rwrist -3.86329
rhand -23.1136 -11.6698
rfingers 7.12502
rthumb 3.33338 -41.6235
lclavicle -4.53229e-014 2.54444e-014
lhumerus -48.717 21.9055 70.7675
lradius 58.3013
lwrist -3.85643
lhand -25.7122 5.01692
lfingers 7.12502
lthumb 0.82374 34.9951
rfemur -42.1971 -20.3269 6.62578
rtibia 59.932
rfoot -14.4246 -6.20548
rtoes -4.15312
lfemur -44.9322 -1.21087 -6.00865
ltibia 61.7171
lfoot -24.1009 -9.10002
ltoes -13.6255
165
root -2.33868 15.414 35.0895 10.8317 65.7117 3.65334
lowerback 30.6281 -0.0947101 1.75677
upperback 7.61843 1.49935 4.8473
thorax -8.30103 0.927073 3.87935
lowerneck 0.512767 -16.838 -18.1264
upperneck -6.91487 -22.4329 20.273
head 2.30073 -11.2897 7.68526
rclavicle 3.81667e-014 -4.29375e-014
rhumerus -33.6418 -15.5081 -66.8643
rradius 38.6633
rwrist -3.68708
rhand -22.8797 -11.5951
rfingers 7.12502
rthumb 3.55926 -41.5452
lclavicle 3.81667e-014 -4.29375e-014
lhumerus -48.7217 21.4725 70.4955
lradius 58.4422
lwrist -3.71345
lhand -25.1265 5.23865
lfingers 7.12502
lthumb 1.38941 35.2139
rfemur -41.9231 -20.2612 6.80198
rtibia 59.1096
rfoot -14.506 -6.15076
rtoes -3.4726
lfemur -43.8649 -1.24044 -6.06185
ltibia 60.4629
lfoot -23.9108 -8.23275
ltoes -14.3052
166
root -2.30071 15.4916 35.1563 11.3456 64.9318 4.02544
lowerback 30.0803 -0.0868042 1.63296
upperback 7.41347 1.41325 4.7303
thorax -8.26716 0.877167 3.84753
lowerneck 0.291879 -16.7558 -18.0791
upperneck -6.89703 -22.2857 20.1914
head 2.29816 -11.2029 7.65857
rclavicle 7.15625e-014 3.97569e-014
rhumerus -34.2308 -15.7248 -67.059
rradius 38.6243
rwrist -3.51416
rhand -22.6493 -11.5032
rfingers 7.12502
rthumb 3.78174 -41.4494
lclavicle 7.15625e-014 3.97569e-014
lhumerus -48.7235 21.0197 70.2428
lradius 58.5776
lwrist -3.49658
lhand -24.6307 5.48338
lfingers 7.12502
lthumb 1.86822 35.4549
rfemur -41.7083 -20.1993 6.98609
rtibia 58.3522
rfoot -14.5925 -6.31899
rtoes -2.76542
lfemur -42.8243 -1.28961 -6.11172
ltibia 59.2418
lfoot -23.7006 -7.32082
ltoes -14.9527
167
root -2.26208 15.5652 35.2248 11.8342 64.131 4.39421
lowerback 29.529 -0.0666207 1.47931
upperback 7.2126 1.33693 4.61851
thorax -8.22568 0.832661 3.83509
lowerneck 0.0619472 -16.685 -18.009
upperneck -6.8775 -22.1523 20.0865
head 2.29432 -11.1226 7.6195
rclavicle 3.18055e-014 -9.85972e-014
rhumerus -34.8025 -15.9959 -67.1938
rradius 38.5881
rwrist -3.36847
rhand -22.4542 -11.3981
rfingers 7.12502
rthumb 3.97021 -41.3408
lclavicle 3.18055e-014 -9.85972e-014
lhumerus -48.726 20.5528 70.0104
lradius 58.7136
lwrist -3.21168
lhand -24.2448 5.7818
lfingers 7.12502
lthumb 2.2409 35.7498
rfemur -41.4927 -20.1485 7.15373
rtibia 57.6484
rfoot -14.6783 -6.74006
rtoes -2.02352
lfemur -41.7655 -1.39339 -6.16794
ltibia 58.0408
lfoot -23.4715 -6.35813
ltoes -15.572
